<svg width="22" height="20" viewBox="0 0 22 20" fill="none" xmlns="http://www.w3.org/2000/svg">
<path d="M1 7.25694C1 5.45818 2.45818 4 4.25694 4V4C5.34591 4 6.36283 3.45576 6.96688 2.54969L7 2.5C7.62474 1.56288 8.6765 1 9.80278 1H12.1972C13.3235 1 14.3753 1.56288 15 2.5L15.0331 2.54969C15.6372 3.45576 16.6541 4 17.7431 4V4C19.5418 4 21 5.45818 21 7.25694V15C21 17.2091 19.2091 19 17 19H5C2.79086 19 1 17.2091 1 15V7.25694Z" stroke="#5F2EEA" stroke-width="2" stroke-linecap="round" stroke-linejoin="round"/>
<circle cx="11" cy="11" r="4" stroke="#5F2EEA" stroke-width="2" stroke-linecap="round" stroke-linejoin="round"/>
</svg>
