<svg width="26" height="26" viewBox="0 0 26 26" fill="none" xmlns="http://www.w3.org/2000/svg">
<rect x="18.9873" y="0.401855" width="9.00541" height="14" rx="4.50271" transform="rotate(45 18.9873 0.401855)" stroke="#5F2EEA" stroke-width="2" stroke-linecap="round" stroke-linejoin="round"/>
<path fill-rule="evenodd" clip-rule="evenodd" d="M15.3848 11.7237C16.1863 11.6964 16.6915 10.8641 16.1666 10.2578C16.0785 10.156 15.9861 10.0567 15.8894 9.95998C13.709 7.77955 10.1738 7.77955 7.99339 9.95998L4.57571 13.3777C2.39528 15.5581 2.39528 19.0933 4.57571 21.2737C6.75614 23.4541 10.2913 23.4541 12.4717 21.2737L15.8894 17.856V17.856C16.0655 17.6799 15.9273 17.3973 15.6784 17.4058L13.8772 17.4671C13.593 17.4767 13.323 17.594 13.1219 17.7951L11.0575 19.8595C9.65814 21.2588 7.3893 21.2589 5.98992 19.8595C4.59055 18.4601 4.59055 16.1913 5.98992 14.7919L9.40761 11.3742C10.807 9.97481 13.0758 9.97481 14.4752 11.3742V11.3742C14.6929 11.5919 14.9807 11.7374 15.2884 11.7269L15.3848 11.7237Z" fill="#5F2EEA"/>
</svg>
