<svg width="23" height="24" viewBox="0 0 23 24" fill="none" xmlns="http://www.w3.org/2000/svg">
<path d="M20.2718 15.8159C19.6608 17.3283 18.689 18.6683 17.4412 19.719C16.1935 20.7697 14.7076 21.4993 13.1132 21.844C11.5189 22.1887 9.86436 22.1382 8.29399 21.6967C6.72363 21.2553 5.28509 20.4365 4.1038 19.3115C2.92252 18.1866 2.03436 16.7898 1.51676 15.2429C0.999169 13.6959 0.867857 12.0459 1.13428 10.4366C1.4007 8.82724 2.05676 7.30753 3.04527 6.00994C4.03377 4.71234 5.3247 3.67627 6.80548 2.99205" stroke="#5F2EEA" stroke-width="2" stroke-linecap="round"/>
<path d="M15.8268 1.83103C15.0768 1.52035 14.2935 1.30288 13.4944 1.18211C12.6753 1.05831 12 1.7414 12 2.56982L12 9.56982C12 10.3983 12.6716 11.0698 13.5 11.0698L20.5 11.0698C21.3284 11.0698 22.0115 10.3946 21.8877 9.57543C21.7669 8.77636 21.5495 7.99303 21.2388 7.24299C20.7362 6.02974 19.9997 4.92734 19.0711 3.99876C18.1425 3.07017 17.0401 2.33358 15.8268 1.83103Z" stroke="#5F2EEA" stroke-width="2" stroke-linecap="round"/>
</svg>
