<svg width="22" height="24" viewBox="0 0 22 24" fill="none" xmlns="http://www.w3.org/2000/svg">
<path d="M12 4.5C12 5.05228 12.4477 5.5 13 5.5C13.5523 5.5 14 5.05228 14 4.5H12ZM4.42857 16C4.98086 16 5.42857 15.5523 5.42857 15C5.42857 14.4477 4.98086 14 4.42857 14V16ZM4 2H10V0H4V2ZM2 12V4H0V12H2ZM12 4V4.5H14V4H12ZM4.42857 14H4V16H4.42857V14ZM0 12C0 14.2091 1.79086 16 4 16V14C2.89543 14 2 13.1046 2 12H0ZM10 2C11.1046 2 12 2.89543 12 4H14C14 1.79086 12.2091 0 10 0V2ZM4 0C1.79086 0 0 1.79086 0 4H2C2 2.89543 2.89543 2 4 2V0Z" fill="#14142B"/>
<rect x="9" y="9" width="12" height="14" rx="3" stroke="#14142B" stroke-width="2"/>
</svg>
