<svg width="24" height="20" viewBox="0 0 24 20" fill="none" xmlns="http://www.w3.org/2000/svg">
<path d="M5.67969 1L21.6797 17" stroke="#5F2EEA" stroke-width="2" stroke-linecap="round"/>
<path d="M14.5892 9.82513C14.748 10.457 14.6968 11.1233 14.4434 11.7235C14.1899 12.3236 13.748 12.825 13.1844 13.1517C12.6208 13.4785 11.9662 13.6129 11.3194 13.5347C10.6726 13.4564 10.0689 13.1698 9.59949 12.7181C9.13007 12.2663 8.82045 11.6741 8.71743 11.0308C8.61441 10.3875 8.7236 9.72817 9.02848 9.15243C9.33337 8.5767 9.81738 8.11586 10.4074 7.83956C10.9973 7.56327 11.6612 7.48653 12.2987 7.62095" stroke="#5F2EEA" stroke-width="2"/>
<path d="M22.2679 11.2303C22.4458 10.5886 22.3647 9.89283 22.0246 9.30043C20.3114 6.3166 17.8496 4.09917 15 3.11646M19.6278 15C17.4379 17.2281 14.6784 18.5565 11.6798 18.5565C7.44377 18.5565 3.68497 15.9056 1.33497 11.8125C0.888345 11.0346 0.888342 10.0784 1.33497 9.30051C2.93979 6.50531 5.20165 4.38265 7.82381 3.31755" stroke="#5F2EEA" stroke-width="2" stroke-linecap="round" stroke-linejoin="round"/>
</svg>
