<svg width="18" height="22" viewBox="0 0 18 22" fill="none" xmlns="http://www.w3.org/2000/svg">
<path d="M15 21H3C1.89543 21 1 20.1046 1 19V3C1 1.89543 1.89543 1 3 1H6.42105C8.07791 1 9.42105 2.34315 9.42105 4V6.5C9.42105 7.88071 10.5403 9 11.9211 9H14C15.6569 9 17 10.3431 17 12V19C17 20.1046 16.1046 21 15 21Z" stroke="#5F2EEA" stroke-width="2"/>
<path d="M15 21H3C1.89543 21 1 20.1046 1 19V3C1 1.89543 1.89543 1 3 1H6.23393C8.59374 1 10.8332 2.04186 12.3532 3.84691L15.1193 7.13163C16.3339 8.57399 17 10.399 17 12.2847V19C17 20.1046 16.1046 21 15 21Z" stroke="#5F2EEA" stroke-width="2"/>
</svg>
