<svg width="22" height="24" viewBox="0 0 22 24" fill="none" xmlns="http://www.w3.org/2000/svg">
<path d="M1.46356 4.44373C1.16403 4.80316 1 5.25623 1 5.7241V20C1 21.6569 2.34315 23 4 23H18C19.6569 23 21 21.6569 21 20V5.7241C21 5.25623 20.836 4.80316 20.5364 4.44373L18.2664 1.71963C17.8864 1.26365 17.3235 1 16.7299 1H5.27008C4.67652 1 4.11363 1.26365 3.73364 1.71963L1.46356 4.44373Z" stroke="#14142B" stroke-width="2"/>
<path d="M1 5.5H21" stroke="#14142B" stroke-width="2"/>
<path d="M15 10C15 12.2091 13.2091 14 11 14C8.79086 14 7 12.2091 7 10" stroke="#14142B" stroke-width="2" stroke-linecap="round"/>
</svg>
