<svg width="24" height="18" viewBox="0 0 24 18" fill="none" xmlns="http://www.w3.org/2000/svg">
<path d="M1 6.16724H5L10 2.16724V16.1672L5 12.1672H1V6.16724Z" stroke="#5F2EEA" stroke-width="2" stroke-linecap="round" stroke-linejoin="round"/>
<path d="M19.702 1C20.7234 2.02144 21.5337 3.23407 22.0865 4.56866C22.6393 5.90324 22.9238 7.33363 22.9238 8.77817C22.9238 10.2227 22.6393 11.6531 22.0865 12.9877C21.5337 14.3223 20.7234 15.5349 19.702 16.5564" stroke="#5F2EEA" stroke-width="2" stroke-linecap="round"/>
<path d="M15.435 4.80322C15.9922 5.36037 16.4341 6.02181 16.7357 6.74976C17.0372 7.47772 17.1924 8.25793 17.1924 9.04586C17.1924 9.83379 17.0372 10.614 16.7357 11.342C16.4341 12.0699 15.9922 12.7314 15.435 13.2885" stroke="#5F2EEA" stroke-width="2" stroke-linecap="round"/>
</svg>
