<svg width="26" height="20" viewBox="0 0 26 20" fill="none" xmlns="http://www.w3.org/2000/svg">
<path d="M4.23683 7.51926C4.76071 5.69228 5.84953 4.07804 7.34723 2.9079C8.84494 1.73777 10.6746 1.07181 12.5741 1.00548C14.4735 0.939152 16.3452 1.47585 17.9209 2.53866C19.4966 3.60147 20.6954 5.13583 21.3454 6.92182" stroke="#14142B" stroke-width="2" stroke-linecap="round" stroke-linejoin="round"/>
<path d="M21.1803 13.4987C20.5032 15.1033 19.3752 16.477 17.933 17.4532C16.4907 18.4294 14.7962 18.9662 13.0549 18.9985C11.3137 19.0307 9.60044 18.5571 8.12301 17.635C6.64559 16.7129 5.46743 15.382 4.73141 13.8036" stroke="#14142B" stroke-width="2" stroke-linecap="round" stroke-linejoin="round"/>
<path d="M6.71399 12.9349L4.14704 13.3156L2.91139 15.5975" stroke="#14142B" stroke-width="2" stroke-linecap="round" stroke-linejoin="round"/>
<path d="M19.1332 7.7299L21.7001 7.34924L22.9358 5.06729" stroke="#14142B" stroke-width="2" stroke-linecap="round" stroke-linejoin="round"/>
</svg>
