<svg width="25" height="18" viewBox="0 0 25 18" fill="none" xmlns="http://www.w3.org/2000/svg">
<path d="M1 5.6863C2.48574 4.20056 4.24956 3.02201 6.19077 2.21793C8.13198 1.41385 10.2126 1 12.3137 1C14.4149 1 16.4954 1.41385 18.4366 2.21793C20.3779 3.022 22.1417 4.20055 23.6274 5.68629" stroke="#14142B" stroke-width="2" stroke-linecap="round"/>
<path d="M4.53516 9.22183C5.5566 8.20038 6.76923 7.39013 8.10381 6.83733C9.43839 6.28452 10.8688 6 12.3133 6C13.7579 6 15.1883 6.28452 16.5228 6.83732C17.8574 7.39013 19.0701 8.20038 20.0915 9.22182" stroke="#14142B" stroke-width="2" stroke-linecap="round"/>
<path d="M8.07129 12.7574C8.62844 12.2002 9.28988 11.7583 10.0178 11.4567C10.7458 11.1552 11.526 11 12.3139 11C13.1019 11 13.8821 11.1552 14.61 11.4567C15.338 11.7583 15.9994 12.2002 16.5566 12.7574" stroke="#14142B" stroke-width="2" stroke-linecap="round"/>
<circle cx="12.3135" cy="16.5" r="0.5" stroke="#14142B"/>
</svg>
