<svg width="25" height="20" viewBox="0 0 25 20" fill="none" xmlns="http://www.w3.org/2000/svg">
<path d="M2 5V4C2 2.34315 3.34315 1 5 1H21C22.6569 1 24 2.34315 24 4V16C24 17.6569 22.6569 19 21 19H16" stroke="#5F2EEA" stroke-width="2" stroke-linecap="round" stroke-linejoin="round"/>
<path d="M2.10479 9.65681C3.28668 9.65681 4.45701 9.8896 5.54894 10.3419C6.64087 10.7942 7.63302 11.4571 8.46875 12.2928C9.30448 13.1286 9.96741 14.1207 10.4197 15.2127C10.872 16.3046 11.1048 17.4749 11.1048 18.6568" stroke="#5F2EEA" stroke-width="2" stroke-linecap="round"/>
<path d="M2.10557 14.173C2.6597 14.173 3.20841 14.2821 3.72037 14.4942C4.23232 14.7063 4.6975 15.0171 5.08933 15.4089C5.48117 15.8007 5.79199 16.2659 6.00405 16.7779C6.2161 17.2898 6.32525 17.8385 6.32525 18.3927" stroke="#5F2EEA" stroke-width="2" stroke-linecap="round"/>
<circle cx="2.12109" cy="18.4685" r="0.5" transform="rotate(45 2.12109 18.4685)" stroke="#5F2EEA"/>
</svg>
